HIERARCHY
ROOT Hips
{
  OFFSET -965.57 96.3 -505.213
  CHANNELS 6 Xposition Yposition Zposition Zrotation Xrotation Yrotation
  JOINT RightUpLeg
  {
    OFFSET -8.9458 -8.66707 0.101652
    CHANNELS 3 Zrotation Xrotation Yrotation
    JOINT RightLeg
    {
      OFFSET 0 -44.4227 1.3727
      CHANNELS 3 Zrotation Xrotation Yrotation
      JOINT RightFoot
      {
        OFFSET 0.253549 -42.0924 -1.46059
        CHANNELS 3 Zrotation Xrotation Yrotation
        JOINT RightToes
        {
          OFFSET 0.04 -4.41509 8.4991
          CHANNELS 3 Zrotation Xrotation Yrotation
          End Site
          {
            OFFSET -0.08 -0.137448 9.77979
          }
        }
      }
    }
  }
  JOINT Spine
  {
    OFFSET 0 11.8905 0
    CHANNELS 3 Zrotation Xrotation Yrotation
    JOINT Spine1
    {
      OFFSET 0 25.6574 0.127663
      CHANNELS 3 Zrotation Xrotation Yrotation
      JOINT HEad
      {
        OFFSET 0 8.73416 0.011341
        CHANNELS 3 Zrotation Xrotation Yrotation
        End Site
        {
          OFFSET -0.29 12.7742 2.51395
        }
      }
      JOINT LeftShoulder1
      {
        OFFSET 8.99 -0.362252 -0.22
        CHANNELS 3 Zrotation Xrotation Yrotation
        JOINT LeftArm
        {
          OFFSET 10.2827 -0.00338 0.322123
          CHANNELS 3 Zrotation Xrotation Yrotation
          JOINT LeftForeArm
          {
            OFFSET 32.7669 0.099144 -1.42434
            CHANNELS 3 Zrotation Xrotation Yrotation
            JOINT LeftHand
            {
              OFFSET 27.5643 0.085362 1.02216
              CHANNELS 3 Zrotation Xrotation Yrotation
              End Site
              {
                OFFSET 16.7443 -0.6 1.50291
              }
            }
          }
        }
      }
      JOINT RightShoulder
      {
        OFFSET -8.99 -0.362252 -0.22
        CHANNELS 3 Zrotation Xrotation Yrotation
        JOINT RightArm
        {
          OFFSET -10.2827 -0.00338 0.322123
          CHANNELS 3 Zrotation Xrotation Yrotation
          JOINT RightForeArm
          {
            OFFSET -32.8971 0.099144 -1.42434
            CHANNELS 3 Zrotation Xrotation Yrotation
            JOINT RightHand
            {
              OFFSET -27.4921 0.085362 1.02216
              CHANNELS 3 Zrotation Xrotation Yrotation
              End Site
              {
                OFFSET -16.6312 -0.6 1.50291
              }
            }
          }
        }
      }
    }
  }
  JOINT LeftUpLeg
  {
    OFFSET 8.9458 -8.66707 0.101652
    CHANNELS 3 Zrotation Xrotation Yrotation
    JOINT LeftLeg
    {
      OFFSET 0 -44.4227 1.3727
      CHANNELS 3 Zrotation Xrotation Yrotation
      JOINT LeftFoot
      {
        OFFSET -0.253549 -42.0924 -1.46059
        CHANNELS 3 Zrotation Xrotation Yrotation
        JOINT LeftToes
        {
          OFFSET -0.04 -4.41509 8.4991
          CHANNELS 3 Zrotation Xrotation Yrotation
          End Site
          {
            OFFSET 0.08 -0.047448 9.77979
          }
        }
      }
    }
  }
}
MOTION
Frames:	14
Frame Time:	0.0166667
-969.295 94.3841 -505.062 37.1646 31.9125 86.6631 -50.4809 5.83956 24.0704 56.4247 27.6644 -46.294 -28.0075 -0.591111 -1.08613 0.0462048 0.000533403 0.662642 -21.671 36.9931 9.76738 0.565056 -0.314469 -0.0045116 -10.4096 12.1632 9.96561 6.36111e-015 -3.97569e-016 -3.18055e-015 -115.085 -83.2353 -82.5935 -44.0996 43.3812 -57.8337 6.49 13.6074 -30.7365 12.5229 4.54309 5.57764 85.3957 12.3209 55.0976 17.8139 51.213 87.3506 20.6044 20.7984 -0.0250187 -0.00498407 -18.1855 45.6712 31.4513 52.388 -0.450395 -33.9881 9.47885 7.13255 -5.27394e-009 1.55986e-007 -4.83941e-009 
-970.246 94.8664 -504.229 35.0912 31.8247 89.2781 -49.1241 6.11596 22.1725 55.0965 26.083 -46.5758 -28.208 -1.01805 -1.05144 0.0462048 0.000533403 0.662642 -24.3463 38.3232 10.9815 0.497373 -0.281153 -0.00941705 -9.24988 11.1154 9.7981 1.59028e-015 0 -0 -142.129 -80.5616 -112.259 -48.2621 46.8606 -55.063 9.24882 13.8631 -23.9225 14.2481 2.72043 4.97173 85.5733 10.9954 55.1285 17.3445 51.3626 88.594 20.4402 20.8641 0.0441586 2.93569 -24.2493 48.2633 41.6514 58.8011 -14.7459 -24.5586 9.16004 6.91588 -5.27395e-009 1.55986e-007 -4.83941e-009 
-971.092 95.1182 -503.338 33.0861 31.6645 91.8102 -47.7314 6.3298 20.3526 53.81 24.566 -46.9694 -28.3266 -1.60485 -1.00019 0.0462048 0.000533403 0.662642 -26.8146 39.3875 12.1419 0.494373 -0.308819 -0.0232827 -8.32788 10.4011 9.7008 3.97569e-016 3.97569e-016 -0 -153.52 -77.0035 -126.044 -52.9775 49.8951 -51.8571 11.6027 14.125 -20.0125 15.6732 1.30192 4.16095 85.7693 9.74744 55.0894 16.848 51.5405 89.9943 20.3189 20.9239 0.0183167 6.08085 -29.7769 51.1114 55.5914 63.5288 -31.5133 -16.7421 9.10713 6.32327 -5.27395e-009 1.55986e-007 -4.8394e-009 
-971.813 95.2455 -502.422 31.1402 31.3809 94.2529 -46.2487 6.50719 18.5987 52.5618 23.0987 -47.3609 -28.3955 -2.24714 -0.962734 0.0462048 0.000533403 0.662642 -29.0235 40.1801 13.218 0.429012 -0.268526 -0.0213627 -7.48942 9.88823 9.63697 -3.47242e-017 -4.73606e-017 3.18055e-015 -158.549 -73.2815 -133.312 -58.1578 52.5232 -48.1869 13.6865 14.339 -17.821 13.9903 2.29414 3.50197 88.5246 8.25773 57.3514 16.2862 51.7356 91.4476 20.2305 21.0219 -0.0510104 9.38297 -34.5714 54.0982 72.3424 66.1606 -49.8191 -10.8867 9.02359 5.55592 -5.27395e-009 1.55986e-007 -4.8394e-009 
-972.427 95.3654 -501.505 29.2536 30.9468 96.5964 -44.6188 6.69168 16.8953 51.2658 21.6503 -47.6053 -28.4248 -2.81759 -0.96316 0.0462048 0.000533403 0.662642 -30.9475 40.7073 14.1883 0.360642 -0.226808 -0.0190129 -6.77927 9.61712 9.63489 3.97569e-016 5.96354e-016 3.18055e-015 -160.915 -69.6992 -137.673 -63.7848 54.7704 -44.0576 15.5738 14.5125 -16.6413 13.0404 2.91082 2.7118 90.7537 6.97434 58.8709 15.7574 51.9025 92.812 20.1676 21.1659 -0.122534 12.745 -38.4706 57.0147 88.0909 66.5525 -65.4634 -7.36038 8.61708 4.62821 -5.27395e-009 1.55986e-007 -4.8394e-009 
-972.98 95.5823 -500.578 26.9543 29.808 99.301 -42.26 6.88114 15.0432 49.7346 19.8245 -47.6534 -28.4188 -3.18402 -1.01942 0.0462048 0.000533403 0.662642 -31.7237 40.8092 14.4389 0.291017 -0.184778 -0.0164745 -6.1502 9.41068 9.66889 -4.41391e-032 -3.97569e-016 -6.36111e-015 -161.599 -66.2493 -140.054 -71.8195 55.6876 -38.2527 17.4924 15.8475 -15.5092 12.8448 3.07874 1.68577 93.0079 4.80911 60.3662 17.0817 52.8206 92.9408 14.624 25.9387 2.49511 15.1119 -40.8323 58.8115 92.1461 66.322 -69.4669 -2.55986 7.70416 3.39305 -5.27395e-009 1.55986e-007 -4.8394e-009 
-973.471 95.5807 -499.696 24.3588 27.8575 102.283 -39.1566 6.68587 12.7539 48.1546 17.9811 -47.565 -28.4614 -3.31153 -1.11382 0.0462048 0.000533403 0.662642 -31.2535 40.4898 13.921 0.221638 -0.14207 -0.0138001 -5.60966 9.27026 9.73849 -1.59028e-015 -1.59028e-015 3.18055e-015 -161.26 -62.9879 -141.188 -79.176 55.9923 -32.7295 19.0715 16.9206 -14.5206 13.1511 2.9024 0.493354 95.5718 1.96554 62.0381 20.2221 54.3916 91.6007 11.2302 28.2682 4.66505 15.9427 -41.3667 58.8928 84.4967 66.5442 -62.1788 3.0881 6.15693 2.07947 -5.27395e-009 1.55986e-007 -4.8394e-009 
-973.903 95.3037 -498.88 21.6035 25.0582 105.413 -35.418 5.92381 10.1204 46.7387 16.1445 -47.483 -28.6547 -3.25622 -1.22292 0.0462048 0.000533403 0.662642 -29.4854 39.6058 12.6222 0.153252 -0.0983161 -0.0105999 -5.20919 9.31924 9.85268 8.82781e-032 7.95139e-016 -6.36111e-015 -160.343 -60.1086 -141.406 -85.6527 55.9216 -27.7579 20.4183 17.8917 -13.6642 13.7454 2.59285 -0.825948 98.6347 -1.33447 64.0794 25.2956 56.4388 88.41 9.35911 29.2009 6.20933 15.5923 -40.4578 57.4085 68.4825 65.924 -46.9116 8.95306 4.20362 0.949942 -5.27395e-009 1.55986e-007 -4.8394e-009 
-974.203 94.8584 -498.212 18.3581 20.3171 108.75 -30.343 3.86254 6.90015 45.6374 14.6166 -47.5336 -28.8354 -3.09865 -1.31311 0.0462048 0.000533403 0.662642 -24.7446 37.0392 9.6784 0.100047 -0.0531511 -0.00730325 -5.23364 9.87266 10.0956 1.59028e-015 7.95139e-016 6.36111e-015 -158.339 -58.4043 -139.834 -88.8129 55.7327 -24.988 21.0005 18.6908 -13.1779 15.4439 1.85094 -1.74375 99.7744 -3.96062 65.1624 29.0462 57.5056 86.2984 11.0341 27.6141 5.94385 15.691 -39.3479 54.0739 49.9608 63.8533 -29.3655 14.2261 2.17433 0.179252 -5.27395e-009 1.55986e-007 -4.8394e-009 
-974.341 94.4039 -497.718 15.8467 15.9396 111.34 -25.9845 1.69297 4.47151 44.8378 13.3584 -47.7178 -28.9993 -2.87654 -1.38059 0.0462048 0.000533403 0.662642 -20.1636 34.0747 6.9096 0.0297297 -0.00424122 -0.00490936 -5.62671 10.8324 10.4482 -4.77083e-015 -7.95139e-016 -0 -155.997 -57.6805 -137.375 -89.8666 55.6195 -23.7697 21.2832 19.0966 -13.1401 16.5338 1.76716 -2.58984 100.717 -5.744 66.2947 31.7354 57.9151 84.996 10.7117 27.4682 5.87016 15.3603 -36.9285 49.602 32.8144 59.8704 -13.2137 18.9313 0.219969 -0.279121 -5.27395e-009 1.55986e-007 -4.8394e-009 
-974.392 94.3855 -497.425 13.9665 12.0733 113.276 -21.8164 -0.4255 2.81084 42.5176 14.0496 -47.7133 -26.9009 -1.91924 -1.27302 0.0462048 0.000533403 0.662642 -15.7846 30.8591 4.39619 0.0263791 0.00140878 -0.00343895 -6.35939 12.1095 10.9154 1.59028e-015 0 -3.18055e-015 -153.722 -57.7703 -134.478 -89.6848 55.6411 -23.5833 21.1975 19.4584 -13.1076 17.1324 2.22663 -3.33595 101.413 -6.96706 67.337 33.5497 57.9597 84.3432 12.1701 26.0809 5.18829 16.0499 -33.8984 44.2757 22.1037 54.3435 -3.45665 -1.61644 -0.470446 -0.0356769 -5.27395e-009 1.55986e-007 -4.8394e-009 
-974.058 94.1373 -497.492 12.5937 8.79054 114.728 -18.7275 -2.75597 1.8215 41.1999 16.4484 -48.7878 -23.7289 -1.42823 -1.09325 0.0462048 0.000533403 0.662642 -11.7462 27.589 2.19567 0.0239131 0.00682879 -0.00223164 -7.39129 13.6094 11.4835 0 5.56597e-015 -0 -151.695 -58.5115 -131.409 -88.8546 55.8013 -24.0554 20.9492 19.7781 -13.3483 17.4633 3.07954 -3.91769 101.754 -7.87883 68.2051 34.6829 57.8015 84.1633 12.0828 25.6369 4.93841 16.9069 -29.7822 38.5685 13.2854 47.76 5.16435 -22.2207 -1.09659 -0.629519 -5.27395e-009 1.55986e-007 -4.83941e-009 
-973.445 93.9217 -497.803 11.6634 6.09773 115.786 -16.1967 -5.06417 1.37938 40.1311 19.7711 -50.5684 -19.7277 -0.774937 -0.937068 0.0462048 0.000533403 0.662642 -8.0098 24.3879 0.300084 0.0217916 0.0117088 -0.00126491 -8.66718 15.255 12.1418 1.59028e-015 2.38542e-015 -0 -149.965 -59.7685 -128.3 -87.7415 56.0809 -24.9112 20.6059 20.0046 -13.509 17.5357 4.22466 -4.38087 101.844 -8.56387 68.8321 35.2714 57.5906 84.3471 13.0036 24.6175 4.47357 17.1711 -27.3916 32.8721 6.63273 41.6744 12.5081 -14.4731 -1.78499 -1.0012 -5.27395e-009 1.55986e-007 -4.8394e-009 
-972.646 93.5565 -498.345 11.1212 3.94116 116.509 -14.373 -7.24332 1.32336 40.2122 22.1568 -52.6303 -16.8706 -0.305154 -0.924377 0.0462048 0.000533403 0.662642 -4.51357 21.3292 -1.30308 0.0194291 0.0138964 -0.000516217 -8.66866 16.3012 12.4135 0 7.95139e-016 -0 -148.514 -61.4243 -125.225 -86.5564 56.446 -25.9736 20.2594 20.1559 -13.7991 17.3461 5.58202 -4.76021 101.794 -9.07771 69.2121 35.4516 57.3848 84.7837 12.9949 24.2006 4.26762 18.4822 -24.4173 26.8552 1.11178 35.8209 19.1156 -17.7226 -2.38957 -0.943693 -5.27395e-009 1.55986e-007 -4.8394e-009 
